<svg width="1655" height="1655" viewBox="0 0 1655 1655" fill="none" xmlns="http://www.w3.org/2000/svg">
<circle cx="827.5" cy="827.5" r="827.5" fill="#F1F1F1"/>
<path d="M982.267 721.18C995.431 708.046 1016.43 707.099 1030.72 718.996L1162.21 828.436C1170.61 835.429 1175.38 845.862 1175.17 856.791L1170.05 1125.15C1170.02 1127.05 1169.83 1128.94 1169.5 1130.81L1163.31 1165.35C1160.24 1182.51 1145.31 1195 1127.87 1195H496.967C489.818 1195 482.83 1192.87 476.895 1188.89L465.889 1181.49C457.371 1175.77 451.699 1166.69 450.298 1156.52L437.361 1062.64C435.869 1051.8 439.38 1040.88 446.904 1032.95L625.303 844.85C637.506 831.983 657.26 829.92 671.859 839.986L760.341 900.997C774.631 910.85 793.916 909.104 806.204 896.844L982.267 721.18Z" fill="#C4C4C4"/>
<circle cx="652.5" cy="648.5" r="66.5" fill="#C4C4C4"/>
<rect x="437.5" y="455.5" width="732" height="732" rx="56.5" stroke="#C4C4C4" stroke-width="21"/>
</svg>
