<svg viewBox="0 0 60 19" fill="none" xmlns="http://www.w3.org/2000/svg">
<path fill="#000" d="M11.5742 14.8359V18H2.94922V14.8359H11.5742ZM4.41406 0.9375V18H0.300781V0.9375H4.41406ZM26.9961 9.12891V9.82031C26.9961 11.125 26.8125 12.2969 26.4453 13.3359C26.0859 14.3672 25.5742 15.25 24.9102 15.9844C24.2461 16.7109 23.4609 17.2695 22.5547 17.6602C21.6484 18.043 20.6484 18.2344 19.5547 18.2344C18.4531 18.2344 17.4453 18.043 16.5312 17.6602C15.625 17.2695 14.8359 16.7109 14.1641 15.9844C13.5 15.25 12.9844 14.3672 12.6172 13.3359C12.2578 12.2969 12.0781 11.125 12.0781 9.82031V9.12891C12.0781 7.82422 12.2578 6.65234 12.6172 5.61328C12.9844 4.57422 13.4961 3.69141 14.1523 2.96484C14.8164 2.23047 15.6016 1.67188 16.5078 1.28906C17.4219 0.898438 18.4297 0.703125 19.5312 0.703125C20.625 0.703125 21.625 0.898438 22.5312 1.28906C23.4453 1.67188 24.2344 2.23047 24.8984 2.96484C25.5625 3.69141 26.0781 4.57422 26.4453 5.61328C26.8125 6.65234 26.9961 7.82422 26.9961 9.12891ZM22.8242 9.82031V9.10547C22.8242 8.26172 22.75 7.51953 22.6016 6.87891C22.4609 6.23047 22.25 5.6875 21.9688 5.25C21.6875 4.8125 21.3398 4.48438 20.9258 4.26562C20.5195 4.03906 20.0547 3.92578 19.5312 3.92578C18.9844 3.92578 18.5078 4.03906 18.1016 4.26562C17.6953 4.48438 17.3555 4.8125 17.082 5.25C16.8086 5.6875 16.6016 6.23047 16.4609 6.87891C16.3281 7.51953 16.2617 8.26172 16.2617 9.10547V9.82031C16.2617 10.6562 16.3281 11.3984 16.4609 12.0469C16.6016 12.6875 16.8086 13.2305 17.082 13.6758C17.3633 14.1211 17.707 14.457 18.1133 14.6836C18.5273 14.9102 19.0078 15.0234 19.5547 15.0234C20.0781 15.0234 20.543 14.9102 20.9492 14.6836C21.3555 14.457 21.6953 14.1211 21.9688 13.6758C22.25 13.2305 22.4609 12.6875 22.6016 12.0469C22.75 11.3984 22.8242 10.6562 22.8242 9.82031ZM43.0859 8.88281V15.8906C42.7969 16.2109 42.3516 16.5547 41.75 16.9219C41.1562 17.2812 40.4062 17.5898 39.5 17.8477C38.5938 18.1055 37.5273 18.2344 36.3008 18.2344C35.168 18.2344 34.1406 18.0547 33.2188 17.6953C32.2969 17.3281 31.5039 16.793 30.8398 16.0898C30.1836 15.3789 29.6758 14.5117 29.3164 13.4883C28.9648 12.457 28.7891 11.2773 28.7891 9.94922V9C28.7891 7.67188 28.9688 6.49219 29.3281 5.46094C29.6875 4.42969 30.1914 3.5625 30.8398 2.85938C31.4961 2.14844 32.2656 1.60937 33.1484 1.24219C34.0391 0.875 35.0156 0.691406 36.0781 0.691406C37.6484 0.691406 38.9258 0.941406 39.9102 1.44141C40.8945 1.93359 41.6406 2.61719 42.1484 3.49219C42.6562 4.35938 42.9648 5.36328 43.0742 6.50391H39.125C39.0469 5.94141 38.8984 5.46484 38.6797 5.07422C38.4688 4.67578 38.1641 4.375 37.7656 4.17188C37.3672 3.96094 36.8516 3.85547 36.2188 3.85547C35.7266 3.85547 35.2773 3.96094 34.8711 4.17188C34.4727 4.38281 34.1328 4.70312 33.8516 5.13281C33.5703 5.55469 33.3516 6.08594 33.1953 6.72656C33.0469 7.36719 32.9727 8.11719 32.9727 8.97656V9.94922C32.9727 10.8008 33.043 11.5469 33.1836 12.1875C33.332 12.8281 33.5508 13.3633 33.8398 13.793C34.1367 14.2148 34.5117 14.5352 34.9648 14.7539C35.4258 14.9648 35.9688 15.0703 36.5938 15.0703C37.0312 15.0703 37.4062 15.0352 37.7188 14.9648C38.0312 14.8867 38.2891 14.793 38.4922 14.6836C38.7031 14.5664 38.8633 14.457 38.9727 14.3555V11.707H36.1133V8.88281H43.0859ZM59.9258 9.12891V9.82031C59.9258 11.125 59.7422 12.2969 59.375 13.3359C59.0156 14.3672 58.5039 15.25 57.8398 15.9844C57.1758 16.7109 56.3906 17.2695 55.4844 17.6602C54.5781 18.043 53.5781 18.2344 52.4844 18.2344C51.3828 18.2344 50.375 18.043 49.4609 17.6602C48.5547 17.2695 47.7656 16.7109 47.0938 15.9844C46.4297 15.25 45.9141 14.3672 45.5469 13.3359C45.1875 12.2969 45.0078 11.125 45.0078 9.82031V9.12891C45.0078 7.82422 45.1875 6.65234 45.5469 5.61328C45.9141 4.57422 46.4258 3.69141 47.082 2.96484C47.7461 2.23047 48.5312 1.67188 49.4375 1.28906C50.3516 0.898438 51.3594 0.703125 52.4609 0.703125C53.5547 0.703125 54.5547 0.898438 55.4609 1.28906C56.375 1.67188 57.1641 2.23047 57.8281 2.96484C58.4922 3.69141 59.0078 4.57422 59.375 5.61328C59.7422 6.65234 59.9258 7.82422 59.9258 9.12891ZM55.7539 9.82031V9.10547C55.7539 8.26172 55.6797 7.51953 55.5312 6.87891C55.3906 6.23047 55.1797 5.6875 54.8984 5.25C54.6172 4.8125 54.2695 4.48438 53.8555 4.26562C53.4492 4.03906 52.9844 3.92578 52.4609 3.92578C51.9141 3.92578 51.4375 4.03906 51.0312 4.26562C50.625 4.48438 50.2852 4.8125 50.0117 5.25C49.7383 5.6875 49.5312 6.23047 49.3906 6.87891C49.2578 7.51953 49.1914 8.26172 49.1914 9.10547V9.82031C49.1914 10.6562 49.2578 11.3984 49.3906 12.0469C49.5312 12.6875 49.7383 13.2305 50.0117 13.6758C50.293 14.1211 50.6367 14.457 51.043 14.6836C51.457 14.9102 51.9375 15.0234 52.4844 15.0234C53.0078 15.0234 53.4727 14.9102 53.8789 14.6836C54.2852 14.457 54.625 14.1211 54.8984 13.6758C55.1797 13.2305 55.3906 12.6875 55.5312 12.0469C55.6797 11.3984 55.7539 10.6562 55.7539 9.82031Z" />
</svg>
