<svg width="650" height="590" viewBox="0 0 650 590" fill="none" xmlns="http://www.w3.org/2000/svg">
<g clip-path="url(#clip0)">
<rect x="80" y="492.924" width="376.253" height="294.636" rx="10" transform="rotate(-14.7703 80 492.924)" fill="#F2F7F9"/>
<rect x="112.261" y="512.861" width="325.216" height="3.75052" transform="rotate(-14.7703 112.261 512.861)" fill="#E6E8EC"/>
<rect x="116.723" y="529.785" width="325.216" height="3.75052" transform="rotate(-14.7703 116.723 529.785)" fill="#E6E8EC"/>
<rect x="121.185" y="546.71" width="325.216" height="3.75052" transform="rotate(-14.7703 121.185 546.71)" fill="#E6E8EC"/>
<rect x="125.648" y="563.634" width="325.216" height="3.75052" transform="rotate(-14.7703 125.648 563.634)" fill="#E6E8EC"/>
<rect x="130.11" y="580.558" width="325.216" height="3.75052" transform="rotate(-14.7703 130.11 580.558)" fill="#E6E8EC"/>
<rect x="134.572" y="597.482" width="325.216" height="3.75052" transform="rotate(-14.7703 134.572 597.482)" fill="#E6E8EC"/>
<rect x="139.034" y="614.406" width="325.216" height="3.75052" transform="rotate(-14.7703 139.034 614.406)" fill="#E6E8EC"/>
<rect x="143.496" y="631.33" width="325.216" height="3.75052" transform="rotate(-14.7703 143.496 631.33)" fill="#E6E8EC"/>
<rect x="147.958" y="648.254" width="325.216" height="3.75052" transform="rotate(-14.7703 147.958 648.254)" fill="#E6E8EC"/>
<rect x="152.421" y="665.178" width="325.216" height="3.75052" transform="rotate(-14.7703 152.421 665.178)" fill="#E6E8EC"/>
<rect x="485.059" y="421" width="317" height="235.676" rx="10" transform="rotate(13.5104 485.059 421)" fill="#F6FAFC"/>
<rect x="501.311" y="447.531" width="274" height="3" transform="rotate(13.5104 501.311 447.531)" fill="#E6E8EC"/>
<rect x="498.04" y="461.143" width="274" height="3" transform="rotate(13.5104 498.04 461.143)" fill="#E6E8EC"/>
<rect x="494.769" y="474.756" width="274" height="3" transform="rotate(13.5104 494.769 474.756)" fill="#E6E8EC"/>
<rect x="491.499" y="488.369" width="274" height="3" transform="rotate(13.5104 491.499 488.369)" fill="#E6E8EC"/>
<rect x="488.228" y="501.981" width="274" height="3" transform="rotate(13.5104 488.228 501.981)" fill="#E6E8EC"/>
<rect x="484.957" y="515.594" width="274" height="3" transform="rotate(13.5104 484.957 515.594)" fill="#E6E8EC"/>
<rect x="481.686" y="529.206" width="274" height="3" transform="rotate(13.5104 481.686 529.206)" fill="#E6E8EC"/>
<rect x="478.416" y="542.819" width="274" height="3" transform="rotate(13.5104 478.416 542.819)" fill="#E6E8EC"/>
<rect x="475.145" y="556.432" width="274" height="3" transform="rotate(13.5104 475.145 556.432)" fill="#E6E8EC"/>
<rect x="471.874" y="570.044" width="274" height="3" transform="rotate(13.5104 471.874 570.044)" fill="#E6E8EC"/>
<rect x="468.604" y="583.657" width="274" height="3" transform="rotate(13.5104 468.604 583.657)" fill="#E6E8EC"/>
<rect x="222" y="390.828" width="376.253" height="294.636" rx="10" transform="rotate(-4.69979 222 390.828)" fill="#FCFEFF"/>
<rect x="250.278" y="416.1" width="325.216" height="3.75052" transform="rotate(-4.69979 250.278 416.1)" fill="#E6E8EC"/>
<rect x="251.712" y="433.544" width="325.216" height="3.75052" transform="rotate(-4.69979 251.712 433.544)" fill="#E6E8EC"/>
<rect x="253.146" y="450.987" width="325.216" height="3.75052" transform="rotate(-4.69979 253.146 450.987)" fill="#E6E8EC"/>
<rect x="254.58" y="468.431" width="325.216" height="3.75052" transform="rotate(-4.69979 254.58 468.431)" fill="#E6E8EC"/>
<rect x="256.014" y="485.874" width="325.216" height="3.75052" transform="rotate(-4.69979 256.014 485.874)" fill="#E6E8EC"/>
<rect x="257.448" y="503.318" width="325.216" height="3.75052" transform="rotate(-4.69979 257.448 503.318)" fill="#E6E8EC"/>
<rect x="258.882" y="520.762" width="325.216" height="3.75052" transform="rotate(-4.69979 258.882 520.762)" fill="#E6E8EC"/>
<rect x="260.316" y="538.205" width="325.216" height="3.75052" transform="rotate(-4.69979 260.316 538.205)" fill="#E6E8EC"/>
<rect x="261.75" y="555.649" width="325.216" height="3.75052" transform="rotate(-4.69979 261.75 555.649)" fill="#E6E8EC"/>
<rect x="263.185" y="573.092" width="325.216" height="3.75052" transform="rotate(-4.69979 263.185 573.092)" fill="#E6E8EC"/>
<rect x="264.618" y="590.536" width="325.216" height="3.75052" transform="rotate(-4.69979 264.618 590.536)" fill="#E6E8EC"/>
<rect x="266.053" y="607.98" width="325.216" height="3.75052" transform="rotate(-4.69979 266.053 607.98)" fill="#E6E8EC"/>
<rect x="359.286" y="187.295" width="126" height="126" rx="57" transform="rotate(24.87 359.286 187.295)" fill="#794E40" stroke="#CEC3B9" stroke-width="14"/>
<rect x="302.144" y="210" width="43.1986" height="26.401" rx="13" transform="rotate(27.3865 302.144 210)" fill="#CEC3B9"/>
<rect x="873.09" y="28.1015" width="376.253" height="294.636" rx="10" transform="rotate(161.928 873.09 28.1015)" fill="#F3F7F9"/>
<rect x="839.735" y="10.0546" width="325.216" height="3.75052" transform="rotate(161.928 839.735 10.0546)" fill="#E6E8EC"/>
<rect x="834.305" y="-6.58447" width="325.216" height="3.75052" transform="rotate(161.928 834.305 -6.58447)" fill="#E6E8EC"/>
<rect x="828.876" y="-23.2235" width="325.216" height="3.75052" transform="rotate(161.928 828.876 -23.2235)" fill="#E6E8EC"/>
<rect x="823.446" y="-39.8625" width="325.216" height="3.75052" transform="rotate(161.928 823.446 -39.8625)" fill="#E6E8EC"/>
<rect x="818.017" y="-56.5016" width="325.216" height="3.75052" transform="rotate(161.928 818.017 -56.5016)" fill="#E6E8EC"/>
<rect x="812.588" y="-73.1406" width="325.216" height="3.75052" transform="rotate(161.928 812.588 -73.1406)" fill="#E6E8EC"/>
<rect x="807.158" y="-89.7796" width="325.216" height="3.75052" transform="rotate(161.928 807.158 -89.7796)" fill="#E6E8EC"/>
<g clip-path="url(#clip1)">
<rect x="488.318" y="174.673" width="379.345" height="438.825" rx="10" transform="rotate(-165.534 488.318 174.673)" fill="#51B9F9"/>
<rect x="179.622" y="127.42" width="75" height="420" transform="rotate(-165.534 179.622 127.42)" fill="#4BAEF8"/>
</g>
</g>
<defs>
<clipPath id="clip0">
<rect width="650" height="590" fill="white"/>
</clipPath>
<clipPath id="clip1">
<rect x="488.318" y="174.673" width="379.345" height="438.825" rx="10" transform="rotate(-165.534 488.318 174.673)" fill="white"/>
</clipPath>
</defs>
</svg>
